<?xml version="1.0" encoding="UTF-8"?>
<svg version="1.1" xmlns="http://www.w3.org/2000/svg" xmlns:xlink="http://www.w3.org/1999/xlink">
<defs>

</defs>
<symbol id="i-arrow-left" xmlns="http://www.w3.org/2000/svg" viewBox="0 0 6.649 11.884"><path fill="none" d="M6.296 11.531L.707 5.942 6.296.354"/></symbol>
<symbol id="i-arrow-right" xmlns="http://www.w3.org/2000/svg" viewBox="0 0 6.649 11.884"><path fill="none" d="M.354.354l5.589 5.588-5.589 5.589"/></symbol>
<symbol id="i-circle-dotted" xmlns="http://www.w3.org/2000/svg" viewBox="0 0 562 562"><path d="M279.68 560.5c-.01-.83.67-1.5 1.5-1.5.82 0 1.5.67 1.5 1.5s-.67 1.5-1.5 1.5-1.5-.67-1.5-1.5zm-18.54.81c-.83-.06-1.45-.78-1.39-1.6.06-.83.77-1.45 1.6-1.39a1.498 1.498 0 01-.11 2.99h-.1zm38.48-1.42a1.499 1.499 0 012.99-.21c.06.83-.56 1.55-1.39 1.6-.04.01-.07.01-.11.01-.78 0-1.44-.61-1.49-1.4zm-58.42-.69a1.5 1.5 0 01-1.28-1.69c.12-.82.88-1.39 1.7-1.28.82.12 1.39.88 1.28 1.7-.11.75-.75 1.29-1.49 1.29-.07 0-.14-.01-.21-.02zm78.26-1.32a1.5 1.5 0 011.27-1.7c.82-.11 1.58.45 1.7 1.28.11.81-.45 1.57-1.27 1.69-.08.01-.15.02-.22.02-.73 0-1.37-.54-1.48-1.29zm-98-2.2c-.81-.18-1.33-.97-1.15-1.78.17-.81.97-1.33 1.78-1.15.81.17 1.33.97 1.15 1.78-.15.7-.77 1.18-1.46 1.18-.11 0-.22-.01-.32-.03zm117.65-1.22a1.5 1.5 0 011.14-1.79 1.498 1.498 0 11.64 2.93c-.11.03-.21.04-.32.04-.69 0-1.31-.48-1.46-1.18zm-137.09-3.71a1.5 1.5 0 11.84-2.88c.8.23 1.25 1.06 1.02 1.86-.19.65-.79 1.08-1.44 1.08-.14 0-.28-.02-.42-.06zm156.44-1.12a1.5 1.5 0 011.02-1.86c.79-.23 1.62.22 1.86 1.02.23.79-.22 1.62-1.02 1.86a1.494 1.494 0 01-1.86-1.02zm-175.47-5.2a1.5 1.5 0 01-.89-1.93c.29-.77 1.16-1.17 1.93-.88a1.5 1.5 0 01.89 1.93c-.23.6-.8.98-1.41.98-.18 0-.35-.03-.52-.1zm194.43-1c-.29-.78.1-1.64.88-1.93.77-.29 1.64.1 1.93.88.29.77-.11 1.64-.88 1.93-.18.06-.35.09-.53.09-.61 0-1.18-.37-1.4-.97zm-212.99-6.67a1.512 1.512 0 01-.74-1.99c.35-.75 1.24-1.09 1.99-.74.75.34 1.09 1.23.74 1.99-.25.55-.79.87-1.36.87-.21 0-.42-.04-.63-.13zm231.43-.87c-.35-.75-.02-1.65.74-1.99.75-.34 1.64-.01 1.99.74.34.75.01 1.64-.74 1.99-.2.09-.42.13-.63.13-.56 0-1.11-.32-1.36-.87zm-249.37-8.12c-.73-.4-1-1.31-.6-2.03.4-.73 1.31-1 2.04-.6.72.4.99 1.31.59 2.04-.27.49-.79.78-1.32.78-.24 0-.49-.06-.71-.19zm267.23-.73c-.4-.72-.13-1.63.6-2.03.72-.4 1.63-.13 2.03.59.4.73.13 1.64-.59 2.04-.23.13-.48.19-.72.19-.53 0-1.05-.29-1.32-.79zm-284.49-9.51c-.7-.45-.9-1.38-.45-2.07.45-.7 1.37-.9 2.07-.45.7.44.9 1.37.45 2.07-.28.44-.77.69-1.26.69a1.5 1.5 0 01-.81-.24zm301.68-.58c-.45-.7-.25-1.63.45-2.08.69-.45 1.62-.25 2.07.45.45.7.25 1.62-.45 2.07-.25.17-.53.24-.81.24-.49 0-.98-.24-1.26-.68zm-318.16-10.87c-.66-.49-.8-1.43-.3-2.1.5-.66 1.44-.79 2.1-.3.66.5.8 1.44.3 2.1-.29.39-.74.6-1.2.6-.31 0-.63-.1-.9-.3zm334.59-.44c-.5-.66-.37-1.6.3-2.1.66-.49 1.6-.36 2.1.3.49.67.36 1.61-.3 2.1-.27.21-.59.3-.9.3-.46 0-.91-.2-1.2-.6zM97.13 493.5a1.5 1.5 0 011.96-2.27c.63.54.7 1.49.16 2.12-.3.34-.72.51-1.14.51-.35 0-.7-.12-.98-.36zm365.79-.3a1.5 1.5 0 01.15-2.11v-.01c.63-.54 1.58-.47 2.12.16a1.5 1.5 0 01-.15 2.11c-.28.25-.63.37-.98.37-.42 0-.84-.18-1.14-.52zM82.44 479.84c-.58-.59-.58-1.54 0-2.13.59-.58 1.54-.58 2.12 0 .59.59.59 1.54 0 2.12-.29.3-.67.45-1.06.45-.38 0-.76-.15-1.06-.44zm395.15-.16a1.49 1.49 0 010-2.12 1.49 1.49 0 012.12 0c.59.59.59 1.54 0 2.12-.29.29-.67.44-1.06.44-.38 0-.77-.15-1.06-.44zM68.77 465.17a1.49 1.49 0 01.14-2.11c.63-.55 1.58-.48 2.12.15v-.01c.54.63.48 1.58-.15 2.12a1.488 1.488 0 01-2.11-.15zm422.5-.02c-.63-.54-.7-1.49-.16-2.11.55-.63 1.49-.69 2.12-.15.63.54.69 1.49.15 2.11-.3.35-.71.52-1.13.52-.35 0-.7-.12-.98-.37zM56.16 449.58c-.5-.67-.36-1.61.3-2.1.66-.5 1.6-.37 2.1.3.5.66.36 1.6-.3 2.1-.27.2-.58.3-.9.3-.45 0-.9-.21-1.2-.6zm447.72.11c-.67-.5-.8-1.44-.3-2.1.49-.66 1.43-.8 2.1-.3.66.5.79 1.44.3 2.1a1.498 1.498 0 01-2.1.3zM44.7 433.13c-.45-.7-.25-1.63.45-2.08.7-.44 1.62-.24 2.07.45.45.7.25 1.63-.44 2.08-.26.16-.54.24-.82.24-.49 0-.97-.25-1.26-.69zm470.66.24c-.7-.45-.9-1.38-.45-2.08.45-.69 1.38-.89 2.07-.45a1.504 1.504 0 01-.81 2.77 1.5 1.5 0 01-.81-.24zM34.44 415.91a1.51 1.51 0 01.6-2.04c.72-.39 1.64-.13 2.04.6.39.72.13 1.64-.6 2.04a1.51 1.51 0 01-2.04-.6zm491.21.35c-.73-.39-.99-1.3-.59-2.03.39-.73 1.3-1 2.03-.6.73.4 1 1.31.6 2.04-.28.5-.79.78-1.32.78-.24 0-.49-.06-.72-.19zm-500.2-18.25c-.35-.75-.02-1.64.73-1.99.76-.35 1.65-.02 1.99.74.35.75.02 1.64-.74 1.99-.2.09-.41.13-.62.13-.57 0-1.11-.32-1.36-.87zm509.25.46a1.495 1.495 0 01-.74-1.99c.34-.75 1.23-1.09 1.98-.74.76.34 1.09 1.23.74 1.99-.25.55-.79.87-1.36.87a1.5 1.5 0 01-.62-.13zM17.75 379.51c-.29-.77.11-1.64.88-1.93.78-.29 1.64.1 1.93.88.29.78-.1 1.64-.88 1.93-.17.07-.35.1-.52.1-.61 0-1.18-.37-1.41-.98zm524.69.55a1.503 1.503 0 01-.88-1.93c.29-.78 1.15-1.17 1.93-.88.78.29 1.17 1.15.88 1.93-.22.6-.8.98-1.4.98-.18 0-.36-.04-.53-.1zM11.4 360.49a1.5 1.5 0 011.02-1.86c.79-.24 1.62.22 1.86 1.01.23.8-.22 1.63-1.02 1.87a1.506 1.506 0 01-1.86-1.02zm537.44.68a1.51 1.51 0 01-1.02-1.87c.23-.79 1.07-1.25 1.86-1.01.8.23 1.25 1.06 1.02 1.86-.19.65-.79 1.08-1.44 1.08-.14 0-.28-.02-.42-.06zM6.43 341.06c-.17-.81.34-1.6 1.15-1.78a1.5 1.5 0 011.79 1.14c.17.81-.34 1.61-1.15 1.79-.11.02-.22.03-.32.03-.69 0-1.31-.48-1.47-1.18zm547.43.8a1.49 1.49 0 01-1.15-1.78c.18-.81.97-1.32 1.78-1.15.81.18 1.33.97 1.15 1.78-.15.71-.77 1.19-1.46 1.19-.11 0-.21-.01-.32-.04zM2.87 321.33a1.5 1.5 0 112.97-.43 1.5 1.5 0 01-1.27 1.7c-.07.01-.14.02-.22.02-.73 0-1.37-.54-1.48-1.29zm554.61.92a1.5 1.5 0 01-1.27-1.7c.11-.82.87-1.39 1.69-1.27.82.12 1.39.87 1.28 1.7-.11.74-.75 1.28-1.48 1.28-.07 0-.15 0-.22-.01zM.73 301.39a1.499 1.499 0 012.99-.21c.06.83-.56 1.54-1.39 1.6-.03.01-.07.01-.11.01-.78 0-1.43-.61-1.49-1.4zm558.97 1.04c-.83-.06-1.45-.78-1.4-1.6.06-.83.78-1.45 1.6-1.4.83.06 1.45.78 1.4 1.61-.06.79-.72 1.39-1.5 1.39h-.1zM0 281.35c0-.82.67-1.5 1.5-1.5s1.5.67 1.5 1.5-.67 1.5-1.5 1.5-1.5-.67-1.5-1.5zm559-.35c0-.12.01-.24.04-.35-.03-.11-.04-.23-.04-.35 0-.83.67-1.5 1.5-1.5.82 0 1.5.67 1.5 1.5 0 .12-.02.23-.04.35a1.498 1.498 0 01-1.46 1.85c-.83 0-1.5-.67-1.5-1.5zm3-.7c0-.01 0-.01 0 0zM2.07 262.92c-.83-.06-1.45-.78-1.39-1.6.06-.83.77-1.45 1.6-1.4.82.06 1.45.78 1.39 1.6-.05.79-.71 1.4-1.49 1.4h-.11zm556.18-2.45c-.06-.82.56-1.54 1.39-1.6.83-.06 1.55.56 1.61 1.39v-.01c.06.83-.56 1.55-1.39 1.61h-.11c-.78 0-1.44-.6-1.5-1.39zm-554.2-17.4a1.51 1.51 0 01-1.28-1.7 1.5 1.5 0 011.7-1.27c.82.11 1.39.87 1.27 1.69-.1.75-.75 1.29-1.48 1.29-.07 0-.14 0-.21-.01zm552.06-2.32a1.5 1.5 0 112.97-.43 1.5 1.5 0 01-1.27 1.7c-.07.01-.15.02-.22.02-.73 0-1.37-.54-1.48-1.29zM7.43 223.41c-.81-.17-1.32-.97-1.15-1.78.18-.81.98-1.32 1.78-1.15.82.17 1.33.97 1.16 1.78-.16.71-.78 1.19-1.47 1.19-.11 0-.21-.01-.32-.04zm545.13-2.17a1.5 1.5 0 011.14-1.79 1.5 1.5 0 011.79 1.14c.18.81-.34 1.61-1.14 1.79-.11.02-.22.03-.33.03-.69 0-1.31-.47-1.46-1.17zM12.22 204.05a1.5 1.5 0 11.84-2.88c.8.23 1.25 1.06 1.02 1.86-.19.66-.79 1.08-1.44 1.08-.14 0-.28-.02-.42-.06zm535.4-2.03c-.23-.79.22-1.63 1.01-1.86.8-.24 1.63.22 1.87 1.01.23.8-.22 1.63-1.01 1.87-.15.04-.29.06-.43.06-.65 0-1.25-.42-1.44-1.08zM18.39 185.08a1.495 1.495 0 01-.88-1.93c.28-.77 1.15-1.17 1.92-.88a1.5 1.5 0 01.89 1.93c-.23.6-.8.97-1.41.97-.17 0-.35-.03-.52-.09zm522.93-1.87c-.3-.77.1-1.64.87-1.93a1.502 1.502 0 011.06 2.81c-.18.06-.36.1-.53.1-.61 0-1.18-.38-1.4-.98zM25.91 166.58a1.497 1.497 0 01-.74-1.98c.34-.76 1.23-1.09 1.99-.75.75.35 1.08 1.24.74 1.99-.25.55-.8.88-1.37.88-.2 0-.42-.05-.62-.14zm507.77-1.65c-.34-.76-.01-1.65.74-1.99.75-.35 1.64-.02 1.99.73.34.75.01 1.65-.74 1.99-.2.1-.41.14-.62.14a1.5 1.5 0 01-1.37-.87zM34.74 148.68a1.51 1.51 0 01-.6-2.04c.4-.73 1.31-1 2.04-.6.72.4.99 1.31.6 2.04-.28.5-.79.78-1.32.78-.24 0-.49-.06-.72-.18zm490.02-1.45c-.4-.73-.14-1.64.59-2.04.73-.4 1.64-.14 2.04.59.4.73.13 1.64-.6 2.04-.23.12-.47.18-.72.18-.53 0-1.04-.28-1.31-.77zM44.83 131.45c-.7-.45-.9-1.38-.46-2.07.45-.7 1.38-.9 2.08-.45.7.44.9 1.37.45 2.07-.29.45-.77.69-1.26.69a1.5 1.5 0 01-.81-.24zm469.76-1.25a1.5 1.5 0 01.44-2.07c.7-.45 1.63-.25 2.08.45.45.69.25 1.62-.45 2.07a1.493 1.493 0 01-2.07-.45zM56.11 114.99a1.5 1.5 0 011.8-2.4c.66.49.8 1.43.3 2.1-.29.39-.74.6-1.2.6-.31 0-.63-.1-.9-.3zm447.12-1.04c-.5-.67-.37-1.61.29-2.1.67-.5 1.61-.37 2.11.29.49.66.36 1.6-.3 2.1-.27.21-.59.3-.9.3-.46 0-.91-.2-1.2-.59zM68.54 99.38a1.5 1.5 0 011.96-2.27c.63.54.7 1.49.16 2.12-.3.34-.72.51-1.14.51-.35 0-.7-.12-.98-.36zm422.2-.85c-.54-.62-.48-1.57.15-2.11a1.49 1.49 0 012.11.14c.55.63.48 1.57-.14 2.12-.29.25-.64.37-.99.37-.41 0-.83-.18-1.13-.52zM82.04 84.69a1.49 1.49 0 010-2.12 1.5 1.5 0 012.12-.01c.59.59.59 1.54 0 2.13-.29.29-.68.44-1.06.44s-.77-.15-1.06-.44zm395.15-.65a1.49 1.49 0 010-2.12 1.5 1.5 0 012.12-.01c.58.59.59 1.54 0 2.12-.29.3-.68.45-1.06.45s-.77-.15-1.06-.44zM96.55 71c-.55-.63-.48-1.58.14-2.12.63-.54 1.58-.48 2.12.15.54.62.48 1.57-.15 2.11-.28.25-.63.37-.98.37-.42 0-.84-.17-1.13-.51zm366.09-.46a1.5 1.5 0 01-.15-2.11c.54-.63 1.49-.7 2.11-.16.63.54.7 1.49.16 2.12-.3.34-.72.52-1.14.52a1.5 1.5 0 01-.98-.37zM111.98 58.37c-.49-.66-.36-1.6.3-2.1.66-.5 1.6-.37 2.1.3.5.66.37 1.6-.29 2.1-.28.2-.59.3-.91.3-.45 0-.9-.21-1.2-.6zm335.19-.26a1.5 1.5 0 01-.3-2.1c.49-.66 1.43-.8 2.1-.3.66.49.8 1.43.3 2.09-.29.4-.74.61-1.2.61-.31 0-.63-.1-.9-.3zM128.28 46.87a1.5 1.5 0 01.44-2.07c.7-.45 1.63-.25 2.08.44.44.7.24 1.63-.45 2.08a1.5 1.5 0 01-.81.24c-.49 0-.98-.24-1.26-.69zm302.57-.06c-.69-.45-.9-1.38-.45-2.08.45-.69 1.38-.9 2.07-.45.7.45.9 1.38.46 2.07-.29.45-.77.69-1.27.69-.27 0-.56-.07-.81-.23zM145.34 36.57c-.4-.73-.13-1.64.6-2.04.72-.4 1.63-.13 2.03.59.4.73.14 1.64-.59 2.04-.23.12-.48.18-.72.18-.53 0-1.05-.28-1.32-.77zm268.43.12c-.73-.39-1-1.3-.6-2.03.4-.73 1.31-1 2.03-.6.73.4 1 1.31.6 2.03-.27.5-.78.79-1.31.79-.25 0-.49-.06-.72-.19zm-250.68-9.18c-.34-.76-.01-1.65.74-1.99.75-.35 1.65-.02 1.99.74.35.75.02 1.64-.74 1.98-.2.1-.41.14-.62.14-.57 0-1.11-.32-1.37-.87zm232.91.32a1.512 1.512 0 01-.74-1.99c.34-.75 1.23-1.09 1.98-.74.76.34 1.09 1.23.75 1.98-.25.56-.8.88-1.37.88a1.5 1.5 0 01-.62-.13zm-214.55-8.08c-.3-.78.1-1.64.87-1.94.78-.29 1.64.11 1.93.88.29.78-.1 1.64-.87 1.93a1.486 1.486 0 01-1.93-.87zm196.19.51a1.495 1.495 0 01-.88-1.93c.28-.78 1.15-1.17 1.92-.89a1.5 1.5 0 01.89 1.93c-.23.61-.8.98-1.41.98-.17 0-.35-.03-.52-.09zm-177.31-6.95c-.24-.79.21-1.63 1.01-1.86a1.5 1.5 0 011.86 1.02c.24.79-.22 1.62-1.01 1.86a1.49 1.49 0 01-1.86-1.02zm158.47.72a1.503 1.503 0 01-1.02-1.86 1.5 1.5 0 112.88.84c-.19.66-.79 1.08-1.44 1.08-.14 0-.28-.02-.42-.06zM219.62 8.26c-.18-.81.34-1.61 1.14-1.79.81-.17 1.61.34 1.79 1.15.18.81-.34 1.6-1.15 1.78h.01c-.11.03-.22.04-.33.04-.69 0-1.31-.48-1.46-1.18zm119.95.92a1.49 1.49 0 01-1.15-1.78c.17-.81.97-1.33 1.78-1.15.81.17 1.32.97 1.15 1.78-.15.7-.78 1.18-1.47 1.18-.1 0-.21-.01-.31-.03zM239.22 4.6c-.11-.82.46-1.58 1.28-1.7.81-.12 1.58.45 1.69 1.27a1.5 1.5 0 01-1.27 1.7c-.07.01-.14.01-.21.01-.74 0-1.38-.54-1.49-1.28zm80.81 1.12a1.5 1.5 0 01-1.27-1.7c.11-.82.87-1.39 1.69-1.27a1.5 1.5 0 011.28 1.69c-.11.75-.75 1.29-1.49 1.29-.07 0-.14 0-.21-.01zm-60.99-3.37c-.06-.83.56-1.55 1.39-1.61.83-.06 1.54.56 1.61 1.39.05.83-.57 1.54-1.39 1.6-.04.01-.08.01-.11.01-.78 0-1.44-.61-1.5-1.39zm41.26 1.31a1.5 1.5 0 01-1.39-1.6c.06-.83.77-1.45 1.6-1.39.82.05 1.45.77 1.39 1.6-.05.79-.71 1.39-1.49 1.39h-.11zM278.97 1.5c0-.83.67-1.5 1.5-1.5s1.5.67 1.5 1.5c0 .82-.67 1.5-1.49 1.5-.83 0-1.51-.67-1.51-1.5zm1.5-1.5z"/></symbol>
<symbol id="i-facebook" xmlns="http://www.w3.org/2000/svg" viewBox="0 0 24 24"><path d="M9 8H6v4h3v12h5V12h3.642L18 8h-4V6.333C14 5.378 14.192 5 15.115 5H18V0h-3.808C10.596 0 9 1.583 9 4.615V8z"/></symbol>
<symbol id="i-fullscreen" viewBox="0 0 16 16" xmlns="http://www.w3.org/2000/svg" fill="#fff" class="bi bi-fullscreen"><path d="M1.5 1a.5.5 0 00-.5.5v4a.5.5 0 01-1 0v-4A1.5 1.5 0 011.5 0h4a.5.5 0 010 1h-4zM10 .5a.5.5 0 01.5-.5h4A1.5 1.5 0 0116 1.5v4a.5.5 0 01-1 0v-4a.5.5 0 00-.5-.5h-4a.5.5 0 01-.5-.5zM.5 10a.5.5 0 01.5.5v4a.5.5 0 00.5.5h4a.5.5 0 010 1h-4A1.5 1.5 0 010 14.5v-4a.5.5 0 01.5-.5zm15 0a.5.5 0 01.5.5v4a1.5 1.5 0 01-1.5 1.5h-4a.5.5 0 010-1h4a.5.5 0 00.5-.5v-4a.5.5 0 01.5-.5z"/></symbol>
<symbol id="i-instagram" xmlns="http://www.w3.org/2000/svg" viewBox="0 0 24 24"><path d="M12 2.163c3.204 0 3.584.012 4.85.07 3.252.148 4.771 1.691 4.919 4.919.058 1.265.069 1.645.069 4.849 0 3.205-.012 3.584-.069 4.849-.149 3.225-1.664 4.771-4.919 4.919-1.266.058-1.644.07-4.85.07-3.204 0-3.584-.012-4.849-.07-3.26-.149-4.771-1.699-4.919-4.92-.058-1.265-.07-1.644-.07-4.849 0-3.204.013-3.583.07-4.849.149-3.227 1.664-4.771 4.919-4.919 1.266-.057 1.645-.069 4.849-.069zM12 0C8.741 0 8.333.014 7.053.072 2.695.272.273 2.69.073 7.052.014 8.333 0 8.741 0 12c0 3.259.014 3.668.072 4.948.2 4.358 2.618 6.78 6.98 6.98C8.333 23.986 8.741 24 12 24c3.259 0 3.668-.014 4.948-.072 4.354-.2 6.782-2.618 6.979-6.98.059-1.28.073-1.689.073-4.948 0-3.259-.014-3.667-.072-4.947-.196-4.354-2.617-6.78-6.979-6.98C15.668.014 15.259 0 12 0zm0 5.838a6.162 6.162 0 100 12.324 6.162 6.162 0 000-12.324zM12 16a4 4 0 110-8 4 4 0 010 8zm6.406-11.845a1.44 1.44 0 100 2.881 1.44 1.44 0 000-2.881z"/></symbol>
<symbol id="i-left" xmlns="http://www.w3.org/2000/svg" viewBox="0 0 6.649 11.884"><path fill="none" d="M6.296 11.531L.707 5.942 6.296.354"/></symbol>
<symbol id="i-linkedin" xmlns="http://www.w3.org/2000/svg" viewBox="0 0 24 24"><path d="M4.98 3.5C4.98 4.881 3.87 6 2.5 6S.02 4.881.02 3.5C.02 2.12 1.13 1 2.5 1s2.48 1.12 2.48 2.5zM5 8H0v16h5V8zm7.982 0H8.014v16h4.969v-8.399c0-4.67 6.029-5.052 6.029 0V24H24V13.869c0-7.88-8.922-7.593-11.018-3.714V8z"/></symbol>
<symbol id="i-logo-c" xmlns="http://www.w3.org/2000/svg" viewBox="0 0 29.194 30.963"><path d="M15.47 25.237c-5.369 0-9.12-3.987-9.12-9.756s3.751-9.755 9.12-9.755a8.084 8.084 0 017.842 5.514l5.667-1.57C27.616 3.77 21.948 0 15.342 0 6.266 0 0 6.32 0 15.481s6.265 15.482 15.342 15.482c6.9 0 12.53-3.987 13.852-9.8l-5.84-1.57a8 8 0 01-7.884 5.642" fill="#fff"/></symbol>
<symbol id="i-logo-dot" xmlns="http://www.w3.org/2000/svg" viewBox="0 0 8.147 8.144"><path d="M4.15.001a4.072 4.072 0 103.992 4.214A4.013 4.013 0 004.333.006c-.06 0-.12-.005-.18-.005" fill="#d6ef52"/></symbol>
<symbol id="i-logo-g" xmlns="http://www.w3.org/2000/svg" viewBox="0 0 30.349 30.963"><path d="M29.873 12.722a20.862 20.862 0 01-7.969 1.654 19.927 19.927 0 01-7.969-1.441v5.6c1.107.806 5.455 1.569 9.631.976-.852 3.478-3.963 5.726-7.969 5.726-5.5 0-9.247-3.987-9.247-9.756s3.749-9.755 9.247-9.755a8.162 8.162 0 017.586 4.708l5.54-2.29C26.805 3.144 21.563 0 15.469 0 6.269 0 0 6.32 0 15.481s6.264 15.482 15.469 15.482c8.566 0 14.873-6.193 14.873-14.421a12.374 12.374 0 00-.468-3.818" fill="#fff"/></symbol>
<symbol id="i-logo-m" xmlns="http://www.w3.org/2000/svg" viewBox="0 0 35.626 29.693"><path d="M17.898 20.998L9.247.003h-5.54C1.407 8.02.596 19.132 0 29.693h6.307a161.6 161.6 0 011.49-19.132l7.671 18.663h4.6l7.716-18.663a158.2 158.2 0 011.495 19.129h6.35c-.6-10.561-1.407-21.673-3.708-29.69h-5.542z" fill="#fff"/></symbol>
<symbol id="i-logo" xmlns="http://www.w3.org/2000/svg" viewBox="0 0 107.18 30.963"><path class="a" d="M15.47 25.237c-5.369 0-9.12-3.987-9.12-9.756s3.751-9.755 9.12-9.755a8.085 8.085 0 017.842 5.514l5.667-1.57C27.616 3.77 21.948 0 15.342 0 6.265 0 0 6.32 0 15.481s6.265 15.482 15.342 15.482c6.9 0 12.53-3.987 13.851-9.8l-5.839-1.57a8 8 0 01-7.884 5.642m82.974-12.513a20.854 20.854 0 01-7.969 1.654 19.915 19.915 0 01-7.97-1.441v5.6c1.108.806 5.455 1.569 9.631.976-.852 3.478-3.963 5.726-7.969 5.726-5.5 0-9.247-3.987-9.247-9.756s3.749-9.755 9.247-9.755a8.162 8.162 0 017.586 4.708l5.54-2.29C95.375 3.139 90.133 0 84.039 0c-9.2 0-15.469 6.32-15.469 15.481s6.264 15.482 15.469 15.482c8.566 0 14.873-6.193 14.873-14.421a12.371 12.371 0 00-.468-3.818m-49.691 8.907L40.102.636h-5.54c-2.3 8.017-3.111 19.129-3.707 29.69h6.307a161.676 161.676 0 011.491-19.132l7.671 18.663h4.6l7.716-18.663a158.466 158.466 0 011.492 19.129h6.35c-.6-10.561-1.407-21.673-3.708-29.69h-5.54z"/><path fill="#d9f252" d="M103.188 22.609a4.072 4.072 0 103.992 4.214 4.014 4.014 0 00-3.989-4.214"/></symbol>
<symbol id="i-mailto" data-name="Layer 2" xmlns="http://www.w3.org/2000/svg" viewBox="0 0 32 32"><path d="M18.19 29.4l-4.25-10.32L29.12 3.91 18.2 29.4zM2.6 13.81L28.09 2.88 12.92 18.05 2.6 13.81zM32 .73c0-.4-.33-.73-.73-.73a.68.68 0 00-.31.08L.45 13.15H.42v.02a.717.717 0 00.12 1.34l12.01 4.96 4.95 12.01h.01c.09.3.36.52.69.52.29 0 .53-.17.65-.42v-.02h.01L31.93 1.04c.05-.1.08-.2.08-.31M11.64 24c-.2 0-.38.08-.52.21l-2.18 2.18c-.13.13-.21.31-.21.51 0 .4.33.73.73.73.2 0 .38-.08.51-.21l2.18-2.18a.728.728 0 00-.52-1.24m0-2.91c0-.4-.33-.73-.73-.73-.2 0-.38.08-.51.21l-7.27 7.27c-.13.13-.21.32-.21.51 0 .4.33.73.73.73.2 0 .38-.08.51-.21l7.27-7.27c.13-.13.21-.31.21-.51m-4.58.51l.73-.73a.734.734 0 00-.52-1.25c-.2 0-.38.08-.51.21l-.73.73a.734.734 0 00.52 1.25c.2 0 .38-.08.51-.21" fill="#333047" fill-rule="evenodd" data-name="Layer 1"/></symbol>
<symbol id="i-menu" xmlns="http://www.w3.org/2000/svg" viewBox="0 0 29.167 21"><g fill="none"><path d="M0 .5h29.167M0 10.5h29.167M0 20.5h29.167"/></g></symbol>
<symbol id="i-minus" xmlns="http://www.w3.org/2000/svg" viewBox="0 0 29.167 1"><path d="M0 .5h29.167"/></symbol>
<symbol id="i-pause" xmlns="http://www.w3.org/2000/svg" viewBox="0 0 8.67 16.132"><g data-name="Group 359"><g data-name="Group 358" fill="none"><path data-name="Line 79" d="M.5 0v16.132"/><path data-name="Line 80" d="M8.17 0v16.132"/></g></g></symbol>
<symbol id="i-play-filled" xmlns="http://www.w3.org/2000/svg" viewBox="0 0 14.14 16.327"><path fill="#fff" d="M.5 8.161v-7.3L6.82 4.51l6.32 3.649-6.32 3.649L.5 15.457z"/></symbol>
<symbol id="i-play" xmlns="http://www.w3.org/2000/svg" viewBox="0 0 14.14 16.327"><path fill="none" d="M.5 8.161v-7.3L6.82 4.51l6.32 3.649-6.32 3.649L.5 15.457z"/></symbol>
<symbol id="i-plus" xmlns="http://www.w3.org/2000/svg" viewBox="0 0 17.692 18.173"><path d="M9 0v18.173M17.692 9.086H0"/></symbol>
<symbol id="i-right" xmlns="http://www.w3.org/2000/svg" viewBox="0 0 6.649 11.884"><path fill="none" d="M.354.354l5.589 5.588-5.589 5.589"/></symbol>
<symbol id="i-search" xmlns="http://www.w3.org/2000/svg" class="h-6 w-6" fill="none" viewBox="0 0 24 24" stroke="currentColor" stroke-width="2"><path stroke-linecap="round" stroke-linejoin="round" d="M21 21l-6-6m2-5a7 7 0 11-14 0 7 7 0 0114 0z"/></symbol>
<symbol id="i-youtube" xmlns="http://www.w3.org/2000/svg" viewBox="0 0 24 24"><path d="M19.615 3.184c-3.604-.246-11.631-.245-15.23 0C.488 3.45.029 5.804 0 12c.029 6.185.484 8.549 4.385 8.816 3.6.245 11.626.246 15.23 0C23.512 20.55 23.971 18.196 24 12c-.029-6.185-.484-8.549-4.385-8.816zM9 16V8l8 3.993L9 16z"/></symbol>
</svg>